<svg width="260" height="260" xmlns="http://www.w3.org/2000/svg"><path d="M225.798 189.193l-67.529-59.226 67.529-59.226c10.656 17.233 16.824 37.519 16.824 59.226s-6.168 41.994-16.824 59.226zm-76.031 51.903V144.53l66.271 58.122c-16.626 19.725-39.865 33.679-66.271 38.444zm0-222.257c26.405 4.765 49.645 18.718 66.271 38.443l-66.271 58.122V18.839zm-16.554 111.084l-.05.044.05.045v112.821c-1.18.037-2.357.09-3.546.09-62.285 0-112.956-50.671-112.956-112.956 0-62.284 50.671-112.955 112.956-112.955 1.189 0 2.366.053 3.546.09v112.821zm105.164-70.214a130.46 130.46 0 0 0-9.902-13.334c-19.667-23.211-47.329-39.439-78.708-44.35C144.354 1.178 138.824.7 133.213.548c-1.181-.032-2.357-.09-3.546-.09C58.254.458.157 58.555.157 129.967c0 71.412 58.097 129.511 129.51 129.511 1.189 0 2.365-.059 3.546-.091 5.611-.151 11.141-.63 16.554-1.477 31.379-4.911 59.041-21.139 78.708-44.351a130.35 130.35 0 0 0 9.902-13.334c13.136-20.254 20.8-44.371 20.8-70.258 0-25.887-7.664-50.003-20.8-70.258z" fill="#FBFAF9" fill-rule="evenodd"/></svg>