<?xml version="1.0" standalone="no"?>
<svg
  width="600"
  height="600"
  viewBox="0 0 600 600"
  xmlns="http://www.w3.org/2000/svg"
>
  <g transform="translate(300,300)">
    <path d="M125.4,-183C148.6,-155.8,143.7,-100.5,161.1,-51.3C178.5,-2.2,218.1,40.8,221.2,84.4C224.3,128.1,190.9,172.5,148,188C105,203.5,52.5,190.3,11.3,174.8C-30,159.3,-60,141.5,-89.4,121.6C-118.9,101.7,-147.9,79.6,-168.7,47.3C-189.6,15,-202.3,-27.4,-192.7,-64.4C-183.1,-101.3,-151.2,-132.8,-115.4,-155.8C-79.5,-178.8,-39.8,-193.4,5.7,-201.2C51.1,-209.1,102.3,-210.1,125.4,-183Z" fill="#d17155" />
  </g>
</svg>
