<?xml version="1.0" encoding="UTF-8"?>
<svg width="260px" height="260px" viewBox="0 0 260 260" version="1.1" xmlns="http://www.w3.org/2000/svg" xmlns:xlink="http://www.w3.org/1999/xlink">
    <!-- Generator: Sketch 50.2 (55047) - http://www.bohemiancoding.com/sketch -->
    <title>Fill 1</title>
    <desc>Created with Sketch.</desc>
    <defs></defs>
    <g id="Page-1" stroke="none" stroke-width="1" fill="none" fill-rule="evenodd">
        <g id="CadeKynastonLogo-02" transform="translate(-6.000000, -12.000000)" fill="#FBFAF9">
            <path d="M231.798,201.193 L164.269,141.967 L231.798,82.741 C242.454,99.974 248.622,120.26 248.622,141.967 C248.622,163.674 242.454,183.961 231.798,201.193 Z M155.767,253.096 L155.767,156.53 L222.038,214.652 C205.412,234.377 182.173,248.331 155.767,253.096 Z M155.767,30.839 C182.172,35.604 205.412,49.557 222.038,69.282 L155.767,127.404 L155.767,30.839 Z M139.213,141.923 L139.163,141.967 L139.213,142.012 L139.213,254.833 C138.033,254.87 136.856,254.923 135.667,254.923 C73.382,254.923 22.711,204.252 22.711,141.967 C22.711,79.683 73.382,29.012 135.667,29.012 C136.856,29.012 138.033,29.065 139.213,29.102 L139.213,141.923 Z M244.377,71.709 C241.355,67.051 238.052,62.597 234.475,58.375 C214.808,35.164 187.146,18.936 155.767,14.025 C150.354,13.178 144.824,12.7 139.213,12.548 C138.032,12.516 136.856,12.458 135.667,12.458 C64.254,12.458 6.157,70.555 6.157,141.967 C6.157,213.379 64.254,271.478 135.667,271.478 C136.856,271.478 138.032,271.419 139.213,271.387 C144.824,271.236 150.354,270.757 155.767,269.91 C187.146,264.999 214.808,248.771 234.475,225.559 C238.052,221.338 241.355,216.883 244.377,212.225 C257.513,191.971 265.177,167.854 265.177,141.967 C265.177,116.08 257.513,91.964 244.377,71.709 Z" id="Fill-1"></path>
        </g>
    </g>
</svg>
